<?xml version="1.0" encoding="UTF-8"?>
<!DOCTYPE svg PUBLIC "-//W3C//DTD SVG 1.1//EN" "http://www.w3.org/Graphics/SVG/1.1/DTD/svg11.dtd">
<!-- Creator: CorelDRAW 2019 (64-Bit) -->
<svg xmlns="http://www.w3.org/2000/svg" xml:space="preserve" width="5.9711in" height="5.91129in" version="1.1" style="shape-rendering:geometricPrecision; text-rendering:geometricPrecision; image-rendering:optimizeQuality; fill-rule:evenodd; clip-rule:evenodd"
viewBox="0 0 5965.49 5905.74"
 xmlns:xlink="http://www.w3.org/1999/xlink">
 <defs>
  <style type="text/css">
   <![CDATA[
    .fil0 {fill:#FEFEFE}
    .fil1 {fill:#373435}
    .fil3 {fill:#FFF212}
    .fil2 {fill:#EC268F}
    .fil4 {fill:#00AFEF}
   ]]>
  </style>
 </defs>
 <g id="Layer_x0020_1">
  <metadata id="CorelCorpID_0Corel-Layer"/>
  <g id="_1188003262016">
   <path class="fil0" d="M5965.49 1484.08l-1.29 2933.75 -1555.2 -1.25c69.01,314.65 82.78,725.66 86.23,1370.47l0.6 113.69 -114.04 0.17 -2934.19 4.82 1.38 -114.99c7.23,-610.02 27.29,-1029.34 109.86,-1374.17l-1557.52 1.25 -1.33 -2933.75 113.52 0.17 1444.73 2.33c-82.1,-344.36 -102.03,-763.11 -109.26,-1371.63l-1.38 -114.94 114.82 0.17 2933.41 4.82 -0.6 113.65c-3.4,643.08 -17.18,1053.57 -85.67,1367.88l1555.93 -2.45z"/>
   <path class="fil1" d="M2726.98 3109.4c49.94,47.14 101.77,95.87 155.72,146.42l80.85 75.77 77.54 -78.87c47.74,-48.56 93.59,-94.88 137.76,-139.27l101.68 101.17c881.8,876.55 975.13,969.67 987.06,2459.6l-2590.17 4.26c11.67,-750.54 49.29,-1184.06 221.15,-1554.29 148.05,-318.92 401.36,-603.61 828.42,-1014.79zm291.24 -156.57l-61.35 61.82 -65.56 -61.78 65.56 -61.82 61.35 61.78z"/>
   <path class="fil2" d="M4267.59 231.48l-2590.17 -4.26c11.67,750.54 49.29,1184.06 221.15,1554.29 172.89,372.43 489.31,698.11 1058.31,1233.14 116.75,-117.87 225.02,-225.5 323.65,-323.57 881.8,-876.55 975.13,-969.67 987.06,-2459.6z"/>
   <path class="fil3" d="M1482.7 1713.32l-1255.7 -2.02 1.12 2479.44 1271.23 -1.03c119.21,-249.52 234.2,-472.78 375.79,-681.92 134.15,-198.16 290.72,-380.74 494.56,-556 -355.55,-354.22 -744.56,-745.55 -887.01,-1238.47z"/>
   <path class="fil4" d="M5738.53 1711.3l-1255.7 2.02c-142.45,492.93 -531.37,884.26 -886.97,1238.47 203.84,175.26 360.37,357.84 494.52,556 141.63,209.14 256.62,432.44 375.79,681.92l1271.28 1.03 1.08 -2479.44z"/>
  </g>
 </g>
</svg>
